<svg viewBox="0 0 331 185" width="75%" height="50%" class=""><defs id="SvgjsDefs1084"></defs><g id="main_text" rel="mainfill" name="main_text" feature="main_text" xmlns:name="mainText_mainfill" groupname="main_text" fill="#ffffff" transform="translate(12.248885447966028, 99.43208288270004) scale(3.0567920032483977)"><path d="M8.62 14 c0.2 0 0.3 0.1 0.3 0.3 l0 10.24 c0 2.34 -1.4 3.46 -4.1 3.46 c-0.64 0 -1.16 -0.02 -1.84 -0.18 c-0.12 -0.02 -0.22 -0.1 -0.22 -0.24 l0 -0.74 c0 -0.12 0.1 -0.22 0.22 -0.2 c0.68 0.16 1.2 0.18 1.84 0.18 c1.78 0 2.82 -0.38 2.82 -2.24 l0 -1.96 c-0.4 0.88 -1.16 1.48 -2.54 1.48 l-0.66 0 c-2.12 0 -3.54 -1.38 -3.54 -3.66 l0 -2.88 c0 -2.32 1.42 -3.64 3.54 -3.64 l0.66 0 c1.38 0 2.14 0.52 2.54 1.38 l0 -1 c0 -0.2 0.12 -0.3 0.3 -0.3 l0.68 0 z M5.38 22.9 c1.44 0 2.26 -0.82 2.26 -2.34 l0 -3.04 c0 -1.62 -0.82 -2.4 -2.26 -2.4 l-0.92 0 c-1.46 0 -2.28 0.78 -2.28 2.4 l0 3.04 c0 1.52 0.82 2.34 2.28 2.34 l0.92 0 z M16.98 15.12 c-0.08 0.18 -0.22 0.22 -0.4 0.16 c-0.3 -0.1 -0.62 -0.16 -1.04 -0.16 l-0.24 0 c-1.52 0 -2.4 0.9 -2.7 1.42 l0 7.16 c0 0.2 -0.1 0.3 -0.3 0.3 l-0.68 0 c-0.2 0 -0.3 -0.1 -0.3 -0.3 l0 -9.4 c0 -0.2 0.1 -0.3 0.3 -0.3 l0.68 0 c0.2 0 0.3 0.1 0.3 0.3 l0 1.2 c0.72 -1.08 1.82 -1.58 3.16 -1.58 c0.46 0 0.92 0.06 1.32 0.2 c0.2 0.08 0.26 0.22 0.16 0.4 z M22.92 13.92 c1.76 0 3.46 1.3 3.46 3.62 l0 1.36 c0 0.38 -0.24 0.62 -0.64 0.62 l-5.82 0 l0 1.12 c0 1.44 0.82 2.26 2.28 2.26 l0.72 0 c1.34 0 1.7 -0.5 2.28 -1.18 c0.12 -0.16 0.22 -0.2 0.42 -0.06 l0.38 0.28 c0.2 0.14 0.2 0.26 0.08 0.42 c-0.72 0.88 -1.42 1.74 -3.16 1.74 l-0.72 0 c-2.14 0 -3.6 -1.4 -3.6 -3.6 l0 -2.94 c0 -2.32 1.46 -3.64 3.6 -3.64 l0.72 0 z M25.080000000000002 18.42 l0 -0.9 c0 -1.62 -0.92 -2.4 -2.16 -2.4 l-0.72 0 c-1.46 0 -2.28 0.78 -2.28 2.4 l0 0.9 l5.16 0 z M32.5 13.92 c1.76 0 3.46 1.3 3.46 3.62 l0 1.36 c0 0.38 -0.24 0.62 -0.64 0.62 l-5.82 0 l0 1.12 c0 1.44 0.82 2.26 2.28 2.26 l0.72 0 c1.34 0 1.7 -0.5 2.28 -1.18 c0.12 -0.16 0.22 -0.2 0.42 -0.06 l0.38 0.28 c0.2 0.14 0.2 0.26 0.08 0.42 c-0.72 0.88 -1.42 1.74 -3.16 1.74 l-0.72 0 c-2.14 0 -3.6 -1.4 -3.6 -3.6 l0 -2.94 c0 -2.32 1.46 -3.64 3.6 -3.64 l0.72 0 z M34.660000000000004 18.42 l0 -0.9 c0 -1.62 -0.92 -2.4 -2.16 -2.4 l-0.72 0 c-1.46 0 -2.28 0.78 -2.28 2.4 l0 0.9 l5.16 0 z M42.5 13.92 c2.32 0 3.12 1.26 3.12 3.54 l0 6.24 c0 0.2 -0.1 0.3 -0.3 0.3 l-0.68 0 c-0.2 0 -0.3 -0.1 -0.3 -0.3 l0 -6.24 c0 -1.56 -0.4 -2.34 -1.98 -2.34 l-0.32 0 c-1.52 0 -2.4 0.9 -2.7 1.42 l0 7.16 c0 0.2 -0.1 0.3 -0.3 0.3 l-0.68 0 c-0.2 0 -0.3 -0.1 -0.3 -0.3 l0 -9.4 c0 -0.2 0.1 -0.3 0.3 -0.3 l0.68 0 c0.2 0 0.3 0.1 0.3 0.3 l0 1.2 c0.68 -1.02 1.74 -1.58 3 -1.58 l0.16 0 z   M57.78 15.2 l-1.62 0 l0 5.7 c0 1.38 0.36 1.92 1.62 1.96 c0.2 0 0.28 0.14 0.28 0.32 l-0.02 0.56 c0 0.18 -0.12 0.3 -0.34 0.3 c-2.12 -0.04 -2.82 -1.06 -2.82 -3.14 l0 -5.7 l-1.06 0 c-0.2 0 -0.3 -0.1 -0.3 -0.3 l0 -0.58 c0 -0.22 0.1 -0.32 0.3 -0.32 l1.06 0 l0 -1.2 c0 -0.2 0.1 -0.3 0.3 -0.3 l0.68 0 c0.2 0 0.3 0.1 0.3 0.3 l0 1.2 l1.6 0 c0.22 0 0.32 0.1 0.32 0.3 l0 0.6 c0 0.2 -0.1 0.3 -0.3 0.3 z M64.52 13.92 c2.32 0 3.12 1.26 3.12 3.54 l0 6.24 c0 0.2 -0.1 0.3 -0.3 0.3 l-0.68 0 c-0.2 0 -0.3 -0.1 -0.3 -0.3 l0 -6.24 c0 -1.56 -0.4 -2.34 -1.98 -2.34 l-0.32 0 c-1.52 0 -2.4 0.9 -2.7 1.42 l0 7.16 c0 0.2 -0.1 0.3 -0.3 0.3 l-0.68 0 c-0.2 0 -0.3 -0.1 -0.3 -0.3 l0 -13.4 c0 -0.2 0.1 -0.3 0.3 -0.3 l0.68 0 c0.2 0 0.3 0.1 0.3 0.3 l0 5.2 c0.68 -1.02 1.74 -1.58 3 -1.58 l0.16 0 z  M73.16 24.08 c-2.32 0 -3.12 -1.26 -3.12 -3.54 l0 -6.24 c0 -0.2 0.1 -0.3 0.3 -0.3 l0.68 0 c0.2 0 0.3 0.1 0.3 0.3 l0 6.24 c0 1.56 0.4 2.34 1.98 2.34 l0.32 0 c1.52 0 2.4 -0.92 2.7 -1.42 l0 -7.16 c0 -0.2 0.1 -0.3 0.3 -0.3 l0.68 0 c0.2 0 0.3 0.1 0.3 0.3 l0 9.4 c0 0.2 -0.1 0.3 -0.3 0.3 l-0.68 0 c-0.2 0 -0.3 -0.1 -0.3 -0.3 l0 -1.2 c-0.68 1.02 -1.74 1.58 -3 1.58 l-0.16 0 z M90.72000000000001 13.92 c2.32 0 3.12 1.26 3.12 3.54 l0 6.24 c0 0.2 -0.1 0.3 -0.3 0.3 l-0.68 0 c-0.2 0 -0.3 -0.1 -0.3 -0.3 l0 -6.24 c0 -1.56 -0.42 -2.34 -1.98 -2.34 l-0.32 0 c-1.52 0 -2.4 0.9 -2.7 1.42 l0 7.16 c0 0.2 -0.1 0.3 -0.3 0.3 l-0.68 0 c-0.2 0 -0.3 -0.1 -0.3 -0.3 l0 -6.24 c0 -1.56 -0.4 -2.34 -1.98 -2.34 l-0.32 0 c-1.52 0 -2.4 0.9 -2.7 1.42 l0 7.16 c0 0.2 -0.1 0.3 -0.3 0.3 l-0.68 0 c-0.2 0 -0.3 -0.1 -0.3 -0.3 l0 -9.4 c0 -0.2 0.1 -0.3 0.3 -0.3 l0.68 0 c0.2 0 0.3 0.1 0.3 0.3 l0 1.2 c0.68 -1.02 1.74 -1.58 3 -1.58 l0.16 0 c1.68 0 2.56 0.66 2.92 1.88 l0.2 -0.3 c0.68 -1.02 1.74 -1.58 3 -1.58 l0.16 0 z M100.74000000000002 13.92 c2.1 0 3.52 1.32 3.52 3.64 l0 2.88 c0 2.28 -1.42 3.66 -3.52 3.66 l-0.68 0 c-1.36 0 -2.14 -0.6 -2.54 -1.48 l0 1.08 c0 0.2 -0.1 0.3 -0.3 0.3 l-0.68 0 c-0.2 0 -0.3 -0.1 -0.3 -0.3 l0 -13.4 c0 -0.2 0.1 -0.3 0.3 -0.3 l0.68 0 c0.2 0 0.3 0.1 0.3 0.3 l0 5 c0.4 -0.86 1.18 -1.38 2.54 -1.38 l0.68 0 z M102.98000000000002 20.56 l0 -3.04 c0 -1.62 -0.82 -2.4 -2.26 -2.4 l-0.92 0 c-1.46 0 -2.28 0.78 -2.28 2.4 l0 3.04 c0 1.52 0.82 2.34 2.28 2.34 l0.92 0 c1.44 0 2.26 -0.82 2.26 -2.34 z"></path></g><g id="SvgjsG1088" name="monogram" feature="monogram" rel="mainfill" xmlns:name="monogram_mainfill" fill="#5e512e" transform="translate(117.57591446854988, -27.19233882974076) scale(5.860418019868746)"><path d="M14.88 8.92 q-0.04 0 -0.04 -0.02 q-0.04 -0.02 0 -0.06 l0.72 -0.84 q0.02 -0.02 0.08 -0.02 q0.04 0.04 0 0.08 l-0.74 0.84 z M13.54 10.18 l-0.04 -0.02 q-0.04 -0.04 0 -0.08 l1.34 -1.24 q0.02 -0.02 0.06 0 q0.02 0.04 0 0.06 l-1.34 1.26 z M13.54 10.18 q-0.02 0 -0.04 -0.02 q-0.02 0 -0.02 -0.06 l0.7 -1.44 q0 -0.08 0.06 -0.02 q0.08 0 0.02 0.06 l-0.68 1.44 z M14.88 8.92 l-0.02 0 l-0.66 -0.2 q-0.08 0 -0.02 -0.06 q0 -0.04 0.06 -0.04 l0.64 0.2 q0.04 0 0.04 0.06 q0 0.04 -0.04 0.04 z M14.22 8.72 q-0.04 0 -0.04 -0.02 q-0.06 -0.06 0.02 -0.06 l1.38 -0.66 q0.06 -0.06 0.06 0.02 q0.04 0.04 -0.02 0.08 l-1.38 0.64 l-0.02 0 z M13.54 10.18 q-0.02 0 -0.03 -0.01 t-0.03 -0.01 l-0.42 -0.64 q0 -0.06 0.02 -0.06 q0.04 -0.04 0.08 0 l0.42 0.64 q0 0.04 -0.02 0.06 z M13.12 9.54 q-0.04 0 -0.04 -0.02 q-0.04 -0.02 0 -0.06 l1.1 -0.82 q0.06 -0.02 0.08 0 q0.04 0.04 -0.02 0.08 l-1.1 0.82 l-0.02 0 z M14.22 8.72 q-0.06 0 -0.06 -0.06 l0.32 -1.88 q0.04 -0.04 0.06 -0.04 q0.04 0 0.04 0.06 l-0.32 1.88 q0 0.04 -0.04 0.04 z M15.6 8.08 q-0.02 0 -0.04 -0.02 l-1.06 -1.24 q-0.04 -0.02 0 -0.06 t0.08 0 l1.06 1.24 q0.02 0.04 0 0.06 t-0.04 0.02 z M14.54 6.84 q-0.04 0 -0.04 -0.02 l-0.88 -0.88 q-0.04 -0.04 0 -0.08 t0.08 0 l0.88 0.9 q0.02 0.04 0 0.06 z M13.66 5.960000000000001 l-0.02 -0.02 l-1.34 -0.78 q-0.08 0 -0.02 -0.06 q0.04 -0.04 0.06 -0.02 l1.34 0.78 q0.04 0.04 0.02 0.06 z M12.32 5.18 l-1.3 -0.32 q-0.06 -0.04 -0.04 -0.08 q0 -0.04 0.06 -0.02 l1.3 0.32 q0.04 0 0.04 0.06 q-0.04 0.04 -0.06 0.04 z M11.02 4.859999999999999 l-1.88 -0.12 q-0.04 0 -0.04 -0.04 q0 -0.06 0.06 -0.06 l1.86 0.12 q0.06 0 0.06 0.04 q0 0.06 -0.06 0.06 z M7.66 4.98 q-0.04 0 -0.04 -0.04 q0 -0.06 0.04 -0.06 l1.48 -0.24 q0.06 0 0.06 0.04 q0 0.06 -0.04 0.06 l-1.48 0.24 l-0.02 0 z M6.14 5.58 q-0.04 0 -0.04 -0.02 q0 -0.06 0.02 -0.08 l1.52 -0.6 q0.06 0 0.08 0.04 q0 0.02 -0.04 0.06 l-1.52 0.6 l-0.02 0 z M13.12 9.54 q-0.04 0 -0.04 -0.02 l-0.74 -0.78 q-0.04 -0.02 0 -0.06 t0.08 0 l0.72 0.78 q0.04 0.04 0 0.08 l-0.02 0 z M12.38 8.76 l-0.02 0 l-1 -0.68 q-0.02 0 -0.02 -0.06 q0.04 -0.04 0.08 -0.02 l0.98 0.66 q0.06 0.04 0.02 0.08 q0 0.02 -0.04 0.02 z M11.38 8.1 l-1.58 -0.24 q-0.04 0 -0.04 -0.04 q0 -0.06 0.06 -0.06 l1.58 0.24 q0.04 0 0.04 0.06 q0 0.04 -0.06 0.04 z M8.4 8.1 q-0.04 0 -0.04 -0.04 q-0.06 -0.06 0.04 -0.06 l1.4 -0.24 q0.02 0 0.06 0.04 q0 0.06 -0.04 0.06 z M6.9 9.1 q-0.02 0 -0.04 -0.02 q-0.06 -0.06 0.02 -0.06 l1.5 -1 q0.02 -0.02 0.06 0 q0.04 0.04 -0.02 0.08 l-1.48 1 l-0.04 0 z M5.92 10.38 q-0.02 0 -0.02 -0.02 q-0.06 -0.02 -0.02 -0.06 l0.98 -1.28 q0.04 -0.04 0.08 0 q0.02 0.04 0 0.06 l-0.98 1.28 q-0.02 0.02 -0.04 0.02 z M5.5 11.92 l-0.02 0 q-0.04 0 -0.04 -0.06 l0.44 -1.54 q0 -0.04 0.06 -0.04 q0.08 0 0.02 0.06 l-0.42 1.54 q0 0.04 -0.04 0.04 z M5.6 13.46 q-0.04 0 -0.04 -0.04 l-0.12 -1.54 q0 -0.06 0.06 -0.06 q0.04 0 0.04 0.06 l0.12 1.52 q0 0.06 -0.06 0.06 z M6.14 14.8 q-0.04 0 -0.04 -0.04 l-0.54 -1.32 q-0.02 -0.04 0.02 -0.08 q0.06 0 0.06 0.04 l0.56 1.32 q0 0.06 -0.04 0.06 q0 0.02 -0.02 0.02 z M7.12 15.92 l-0.04 -0.02 l-0.98 -1.12 q0 -0.06 0.02 -0.08 q0.04 -0.04 0.06 0.02 l0.98 1.12 q0.02 0.04 0 0.06 z M8.28 16.62 l-0.02 0 l-1.16 -0.72 q-0.08 0 -0.02 -0.06 q0 -0.08 0.06 -0.02 l1.18 0.72 q0.06 0 0 0.06 q0 0.02 -0.04 0.02 z M9.88 16.92 l-0.02 0 l-1.58 -0.3 q-0.04 0 -0.04 -0.06 q0 -0.04 0.06 -0.04 l1.58 0.3 q0.04 0 0.04 0.06 q0 0.04 -0.04 0.04 z M9.88 16.92 q-0.06 0 -0.06 -0.04 q0 -0.06 0.04 -0.06 l1.5 -0.3 q0.02 0 0.06 0.04 q0 0.06 -0.04 0.06 z M11.36 16.62 q-0.04 0 -0.04 -0.02 q-0.06 -0.06 0.02 -0.06 l0.9 -0.54 q0.02 -0.02 0.06 0 q0.02 0.06 -0.02 0.08 l-0.9 0.54 l-0.02 0 z M12.26 16.08 l-0.04 0 q-0.04 -0.04 0 -0.08 l0.86 -0.92 q0.02 -0.02 0.06 0 q0.04 0.04 0 0.08 l-0.84 0.9 q-0.02 0.02 -0.04 0.02 z M13.12 15.18 q-0.02 0 -0.02 -0.02 q-0.04 0 -0.04 -0.06 l0.2 -0.72 q0 -0.04 0.06 -0.02 q0.04 0 0.04 0.06 l-0.2 0.72 q0 0.04 -0.04 0.04 z M12.18 14.54 q-0.06 0 -0.06 -0.04 q0 -0.06 0.04 -0.06 l1.14 -0.1 q0.06 0 0.06 0.06 q0 0.04 -0.06 0.04 z M12.18 14.54 l-1.2 -0.02 q-0.04 0 -0.04 -0.06 q0 -0.04 0.06 -0.04 l1.18 0.02 q0.04 0 0.04 0.06 q0 0.04 -0.04 0.04 z M11 14.52 l-1.28 -0.04 q-0.06 0 -0.06 -0.04 q0 -0.06 0.06 -0.06 l1.28 0.04 q0.04 0 0.04 0.06 q0 0.04 -0.04 0.04 z M9.72 14.48 q-0.06 0 -0.06 -0.06 l0.1 -1.28 q0 -0.04 0.04 -0.04 q0.06 0 0.06 0.06 l-0.1 1.28 q0 0.04 -0.04 0.04 z M9.8 13.2 q-0.04 0 -0.04 -0.04 l-0.1 -1.56 q0 -0.06 0.06 -0.06 q0.04 0 0.04 0.04 l0.1 1.56 q0 0.06 -0.06 0.06 z M11.36 11.64 l-1.64 0 q-0.06 0 -0.06 -0.04 q0 -0.06 0.06 -0.06 l1.64 0 q0.04 0 0.04 0.06 q0 0.04 -0.04 0.04 z M12.72 11.76 l-1.36 -0.12 q-0.06 0 -0.06 -0.06 q0.04 -0.04 0.06 -0.04 l1.36 0.12 q0.04 0.04 0.04 0.06 q0 0.04 -0.04 0.04 z M12.72 11.76 q-0.06 0 -0.06 -0.04 q0 -0.02 0.06 -0.06 l1.48 -0.12 q0.02 0 0.06 0.04 q0 0.06 -0.06 0.06 z M15.6 11.7 l-1.4 -0.06 q-0.08 0 -0.04 -0.06 q0 -0.04 0.04 -0.04 l1.4 0.06 q0.06 0 0.06 0.06 q0 0.04 -0.06 0.04 z M15.6 11.7 q-0.04 0 -0.04 -0.04 q0 -0.06 0.04 -0.06 l0.82 -0.06 q0.04 0 0.04 0.06 q0.04 0.04 -0.04 0.04 z M16.6 14.32 q-0.04 0 -0.04 -0.06 l-0.2 -2.66 q0 -0.06 0.06 -0.06 q0.04 0 0.04 0.06 l0.2 2.66 q0 0.04 -0.06 0.06 z M16.32 15.6 l-0.02 0 q-0.04 -0.04 -0.04 -0.06 l0.3 -1.28 q0 -0.06 0.06 -0.04 q0.04 0 0.02 0.06 l-0.28 1.28 q0 0.04 -0.04 0.04 z M15.48 16.92 l-0.02 0 q-0.06 -0.04 -0.02 -0.08 l0.84 -1.32 q0 -0.08 0.06 -0.02 q0.04 0.04 0.02 0.06 l-0.84 1.34 q0 0.02 -0.04 0.02 z M14.54 18.1 l-0.04 0 q-0.04 -0.04 0 -0.08 l0.94 -1.18 q0.02 -0.02 0.08 -0.02 q0.04 0.04 0 0.08 l-0.94 1.18 q-0.02 0.02 -0.04 0.02 z M13.32 19.04 q-0.02 0 -0.02 -0.01 t-0.02 -0.01 q-0.04 -0.04 0.02 -0.08 l1.2 -0.92 q0.04 -0.04 0.08 0 q0.02 0.04 -0.02 0.08 l-1.2 0.92 q-0.02 0.02 -0.04 0.02 z M12.04 19.7 q-0.04 0 -0.04 -0.02 q-0.04 -0.02 0.02 -0.08 l1.28 -0.66 q0.06 -0.06 0.06 0.02 q0.06 0.06 -0.02 0.06 l-1.28 0.68 l-0.02 0 z M10.56 20 q-0.04 0 -0.04 -0.04 q0 -0.06 0.04 -0.06 l1.46 -0.3 q0.06 0 0.06 0.04 q0.02 0.06 -0.04 0.06 l-1.46 0.3 l-0.02 0 z M10.58 20 l-1.42 -0.02 q-0.06 0 -0.06 -0.04 q0 -0.06 0.06 -0.06 l1.42 0.02 q0.04 0 0.04 0.04 q0 0.06 -0.04 0.06 z M9.16 19.98 l-1.46 -0.14 q-0.08 0 -0.04 -0.06 q0 -0.04 0.04 -0.04 l1.46 0.14 q0.06 0 0.04 0.06 q0 0.04 -0.04 0.04 z M7.7 19.84 l-0.02 0 l-1.54 -0.46 q-0.04 -0.02 -0.04 -0.06 q0 -0.1 0.06 -0.04 l1.56 0.46 q0.04 0.04 0.02 0.06 q0 0.04 -0.04 0.04 z M6.14 19.38 q-0.02 0 -0.02 -0.02 l-1.4 -1.12 q-0.06 0 0 -0.06 q0.02 -0.02 0.06 0 l1.4 1.1 q0.04 0.04 0 0.08 q-0.02 0.02 -0.04 0.02 z M4.76 6.4 q-0.02 0 -0.03 -0.01 t-0.03 -0.01 q0 -0.06 0.02 -0.08 l1.4 -0.8 q0.04 -0.04 0.08 0 q0 0.06 -0.02 0.08 l-1.4 0.82 l-0.02 0 z M4 7.300000000000001 q-0.04 0 -0.04 -0.02 q-0.04 -0.02 0 -0.06 l0.76 -0.9 q0.02 -0.02 0.06 -0.02 q0.02 0.02 0.02 0.08 l-0.78 0.9 z M3.06 8.66 l-0.02 0 q-0.06 -0.04 -0.02 -0.08 l0.92 -1.36 q0.02 -0.02 0.08 -0.02 q0.02 0.02 0.02 0.08 l-0.94 1.36 q0 0.02 -0.04 0.02 z M2.46 10.18 q-0.02 0 -0.02 -0.02 q-0.04 0 -0.04 -0.06 l0.62 -1.5 q0.02 -0.04 0.06 -0.04 q0.04 0.02 0.04 0.08 l-0.62 1.5 z M2.2 11.58 l-0.02 0 q-0.04 0 -0.04 -0.06 l0.26 -1.4 q0 -0.1 0.06 -0.04 q0.04 0 0.04 0.06 l-0.26 1.4 q0 0.04 -0.04 0.04 z M2.16 12.84 q-0.04 0 -0.04 -0.06 l0.02 -1.24 q0 -0.06 0.06 -0.06 q0.04 0 0.04 0.06 l-0.02 1.26 q0 0.04 -0.06 0.04 z M2.32 13.84 q-0.06 0 -0.06 -0.04 l-0.14 -1 q0 -0.06 0.04 -0.06 q0.06 0 0.06 0.04 l0.14 1 q0 0.06 -0.04 0.06 z M2.72 15.36 q-0.04 0 -0.04 -0.04 l-0.42 -1.52 q0 -0.02 0.04 -0.06 q0.06 0 0.06 0.04 l0.4 1.52 q0.02 0.02 -0.02 0.06 l-0.02 0 z M3.36 16.6 q-0.04 0 -0.04 -0.04 l-0.64 -1.24 q-0.02 -0.02 0.02 -0.06 q0.06 -0.06 0.06 0.02 l0.64 1.24 q0.06 0.06 -0.02 0.06 q0 0.02 -0.02 0.02 z M4.76 18.26 q-0.04 0 -0.04 -0.02 l-1.4 -1.66 q-0.04 -0.02 0.02 -0.08 q0.02 -0.02 0.06 0 l1.4 1.68 q0 0.06 -0.02 0.06 z M12.38 8.76 l-0.02 0 q-0.04 -0.04 -0.02 -0.08 l0.36 -0.7 q0.02 -0.02 0.08 -0.02 q0.02 0.02 0.02 0.08 l-0.38 0.7 q-0.02 0.02 -0.04 0.02 z M13.12 9.54 q-0.06 0 -0.06 -0.04 l-0.36 -1.48 q0 -0.06 0.04 -0.06 q0.02 0 0.06 0.04 l0.36 1.48 q0 0.06 -0.04 0.06 z M14.22 8.72 l-0.02 0 l-1.48 -0.66 q-0.04 -0.04 -0.02 -0.06 q0.02 -0.04 0.06 -0.04 l1.48 0.68 q0.08 0 0.02 0.06 q0 0.02 -0.04 0.02 z M14.22 8.72 l-0.04 0 l-0.02 -0.04 q0 -0.02 0.01 -0.02 t0.01 -0.02 q0.04 -0.04 0.08 0 l0 0.04 l0 0.04 l-0.04 0 z M12.74 8.06 l-0.02 0 q-0.04 -0.04 -0.02 -0.06 l0.58 -1.22 q0 -0.04 0.06 -0.04 q0.04 0.04 0.02 0.08 l-0.56 1.22 q-0.02 0.02 -0.06 0.02 z M13.32 6.84 q-0.06 0 -0.06 -0.04 q0 -0.06 0.06 -0.06 l1.22 0 q0.04 0 0.04 0.06 q0 0.04 -0.04 0.04 l-1.22 0 z M14.22 8.72 q-0.04 0 -0.04 -0.02 l-0.9 -1.88 q-0.02 -0.04 0.02 -0.08 q0.06 0 0.06 0.02 l0.9 1.9 q0.02 0.02 -0.02 0.06 l-0.02 0 z M13.32 6.84 l-0.02 0 q-0.04 -0.04 -0.02 -0.06 l0.32 -0.9 q0.04 -0.04 0.08 -0.02 q0.08 0 0.02 0.06 l-0.34 0.88 q0 0.04 -0.04 0.04 z M13.32 6.84 q-0.04 0 -0.04 -0.02 l-1 -1.68 q-0.02 -0.02 0.02 -0.06 q0.06 -0.06 0.06 0.02 l1 1.66 q0.02 0.04 -0.02 0.08 l-0.02 0 z M11.28 5.960000000000001 q-0.02 0 -0.04 -0.02 q0 -0.06 0.02 -0.08 l1.04 -0.78 q0.02 -0.02 0.06 0.02 q0.02 0.04 0 0.06 l-1.04 0.78 q0 0.02 -0.04 0.02 z M13.32 6.84 l-0.02 0 l-2.04 -0.88 q-0.02 -0.02 -0.02 -0.08 q0.02 -0.02 0.06 -0.02 l2.04 0.88 q0.04 0.04 0.02 0.08 q0 0.02 -0.04 0.02 z M11.92 6.9 q-0.06 0 -0.06 -0.04 q0 -0.06 0.06 -0.06 l1.4 -0.06 q0.04 0 0.04 0.04 q0.02 0.06 -0.04 0.06 z M12.38 8.76 q-0.04 0 -0.04 -0.04 l-0.48 -1.86 q0 -0.02 0.04 -0.06 q0.06 0 0.06 0.04 l0.46 1.86 q0.06 0.06 -0.02 0.06 l-0.02 0 z M11.38 8.1 l-0.02 0 q-0.02 -0.02 -0.02 -0.08 l0.52 -1.18 q0.04 -0.04 0.08 -0.02 q0.02 0 0.02 0.06 l-0.52 1.18 q-0.04 0.04 -0.06 0.04 z M11.92 6.9 q-0.04 0 -0.04 -0.02 l-0.64 -0.94 q0 -0.06 0.02 -0.08 q0.06 0 0.08 0.02 l0.62 0.94 q0 0.06 -0.02 0.08 l-0.02 0 z M11.38 8.1 q-0.04 0 -0.04 -0.06 l-0.1 -2.14 q0 -0.04 0.04 -0.04 q0.06 0 0.06 0.04 l0.1 2.14 q0 0.06 -0.04 0.06 l-0.02 0 z M11.38 8.1 q-0.02 -0.02 -0.04 -0.02 l-1.12 -1.82 q0 -0.06 0.02 -0.08 t0.08 0.02 l1.12 1.82 q0 0.06 -0.02 0.06 q-0.02 0.02 -0.04 0.02 z M9.8 7.859999999999999 q-0.1 0 -0.04 -0.06 l0.46 -1.58 q0 -0.04 0.06 -0.04 q0.04 0 0.04 0.06 l-0.46 1.6 q-0.02 0.02 -0.06 0.02 z M10.26 6.279999999999999 q-0.04 0 -0.04 -0.04 q0 -0.06 0.04 -0.06 l1.02 -0.32 q0.04 0 0.06 0.04 q0 0.04 -0.04 0.06 l-1.02 0.32 l-0.02 0 z M11.28 5.960000000000001 q-0.04 0 -0.04 -0.04 l-0.26 -1.1 q-0.04 -0.06 0.04 -0.06 q0.02 -0.02 0.06 0.04 l0.26 1.1 q0 0.02 -0.04 0.06 l-0.02 0 z M10.26 6.279999999999999 l-0.02 0 q-0.02 -0.02 -0.02 -0.08 l0.76 -1.42 q0.04 -0.04 0.06 -0.02 q0.06 0.02 0.02 0.06 l-0.74 1.42 q-0.04 0.04 -0.06 0.04 z M10.26 6.279999999999999 q-0.02 -0.02 -0.04 -0.02 l-1.1 -1.54 q-0.04 -0.02 0 -0.06 t0.08 0 l1.1 1.54 q0.06 0.06 0 0.06 q-0.02 0.02 -0.04 0.02 z M9.16 6.119999999999999 q-0.06 0 -0.06 -0.06 l0 -1.36 q0 -0.06 0.06 -0.06 q0.04 0 0.04 0.06 l0 1.36 q0 0.06 -0.04 0.06 z M10.26 6.279999999999999 l-1.1 -0.16 q-0.06 -0.02 -0.06 -0.06 q0.04 -0.06 0.06 -0.04 l1.12 0.16 q0.04 0 0.04 0.06 q0 0.04 -0.06 0.04 z M8.86 7.18 l-0.04 -0.02 q-0.02 -0.06 0 -0.08 l1.42 -0.9 q0.02 -0.02 0.08 0.02 q0 0.06 -0.02 0.06 l-1.42 0.9 z M9.8 7.859999999999999 l-0.02 0 l-0.96 -0.7 q-0.06 0 0 -0.06 q0.04 -0.04 0.06 -0.02 l0.96 0.7 q0.02 0.04 0 0.06 q0 0.02 -0.04 0.02 z M8.86 7.18 l-0.02 0 q-0.04 -0.04 -0.04 -0.06 l0.32 -1.08 q0 -0.04 0.06 -0.02 q0.08 0 0.02 0.06 l-0.3 1.06 q0 0.04 -0.04 0.04 z M8.4 8.1 l-0.02 0 q-0.04 -0.04 -0.02 -0.06 l0.44 -0.94 q0.04 -0.04 0.08 -0.02 q0.04 0.04 0.02 0.06 l-0.46 0.94 q0 0.02 -0.04 0.02 z M8.4 8.1 q-0.04 0 -0.04 -0.02 l-0.7 -1.38 q-0.06 -0.06 0.02 -0.06 q0.06 -0.06 0.06 0.02 l0.7 1.38 q0.02 0.02 -0.02 0.06 l-0.02 0 z M7.7 6.720000000000001 q-0.04 0 -0.04 -0.02 q-0.02 -0.04 0.02 -0.08 l1.46 -0.6 q0.06 -0.06 0.06 0.02 q0.06 0.06 -0.02 0.06 l-1.46 0.62 l-0.02 0 z M9.16 6.119999999999999 q-0.02 0 -0.04 -0.02 l-1.48 -1.12 q-0.06 -0.04 -0.02 -0.08 t0.08 0 l1.48 1.12 q0.06 0.04 0.02 0.08 q-0.02 0 -0.02 0.01 t-0.02 0.01 z M6.64 6.039999999999999 l-0.04 -0.02 q-0.04 -0.04 0 -0.08 l1.02 -1.04 q0.04 -0.04 0.08 0 q0.02 0.04 0 0.06 l-1.04 1.06 z M7.7 6.720000000000001 l-0.02 0 l-1.08 -0.7 q-0.04 -0.02 0 -0.06 q0 -0.08 0.06 -0.02 l1.06 0.7 q0.08 0 0.02 0.06 q0 0.02 -0.04 0.02 z M9.16 6.119999999999999 l-2.52 -0.08 q-0.06 -0.02 -0.06 -0.06 q0 -0.06 0.06 -0.04 l2.52 0.08 q0.04 0 0.04 0.04 q0 0.06 -0.04 0.06 z M6.64 6.039999999999999 l-0.04 -0.02 l-0.48 -0.44 q-0.04 -0.04 0 -0.08 q0 -0.06 0.06 0 l0.48 0.44 q0.04 0.04 0 0.08 z M4.76 6.4 q-0.06 0 -0.06 -0.04 q0 -0.06 0.04 -0.06 l1.88 -0.36 q0.06 -0.06 0.06 0.04 q0 0.04 -0.04 0.04 z M5.84 7.42 q-0.04 0 -0.04 -0.02 l-1.08 -1.02 q-0.04 -0.02 0 -0.06 q0.02 -0.02 0.06 0 l1.08 1 q0.04 0.04 0 0.08 z M5.84 7.42 q-0.02 0 -0.04 -0.02 q-0.02 0 -0.02 -0.06 l0.8 -1.38 q0.04 -0.04 0.08 -0.02 q0.02 0.02 0.02 0.06 l-0.8 1.4 q-0.02 0 -0.02 0.01 t-0.02 0.01 z M7.42 8.1 q-0.1 0 -0.04 -0.06 l0.28 -1.38 q0 -0.04 0.06 -0.04 q0.04 0.04 0.04 0.06 l-0.3 1.38 q0 0.04 -0.04 0.04 z M7.42 8.1 l-0.02 0 l-1.58 -0.68 q-0.04 -0.02 -0.04 -0.08 q0.04 -0.04 0.08 -0.02 l1.58 0.68 q0.04 0.04 0.02 0.08 q0 0.02 -0.04 0.02 z M7.42 8.1 q-0.04 0 -0.04 -0.02 l-0.8 -2.08 q0 -0.06 0.04 -0.06 q0.02 -0.02 0.06 0.02 l0.78 2.08 q0.02 0.02 -0.02 0.06 l-0.02 0 z M6.9 9.1 l-0.02 0 q-0.04 -0.04 -0.02 -0.06 l0.52 -1.02 q0 -0.02 0.06 -0.02 q0.04 0.06 0.02 0.08 l-0.5 1 q-0.02 0.02 -0.06 0.02 z M7.42 8.1 q-0.06 0 -0.06 -0.04 q0 -0.06 0.06 -0.06 l0.98 0 q0.04 0 0.04 0.06 q0 0.04 -0.04 0.04 l-0.98 0 z M6.9 9.1 q-0.02 0 -0.04 -0.02 l-1.06 -1.68 q-0.02 -0.06 0 -0.08 t0.08 0.02 l1.06 1.68 q0.02 0.06 0 0.08 l-0.04 0 z M5.92 10.38 l-1.18 -0.2 q-0.04 -0.04 -0.04 -0.06 q0 -0.1 0.06 -0.04 l1.16 0.2 q0.06 0 0.06 0.06 q-0.04 0.04 -0.06 0.04 z M4.76 10.18 l-0.02 0 q-0.04 -0.04 -0.04 -0.08 l0.54 -1.9 q0.04 -0.04 0.06 -0.02 q0.04 0 0.04 0.06 l-0.54 1.9 q0 0.04 -0.04 0.04 z M5.92 10.38 q-0.04 0 -0.04 -0.04 l-0.64 -2.1 q0 -0.06 0.04 -0.06 q0.06 -0.06 0.06 0.02 l0.62 2.12 q0.02 0.02 -0.02 0.06 l-0.02 0 z M6.9 9.1 l-0.02 0 l-1.62 -0.84 q-0.02 0 -0.02 -0.06 q0.04 -0.04 0.08 -0.02 l1.6 0.84 q0.04 0 0.04 0.06 q-0.02 0.02 -0.06 0.02 z M5.3 8.26 l-0.04 0 q-0.04 -0.02 0 -0.06 l0.54 -0.86 q0 -0.08 0.06 -0.02 q0.02 0.02 0.02 0.08 l-0.54 0.84 z M5.84 7.42 l-0.02 0 l-1.84 -0.12 q-0.04 0 -0.04 -0.06 q0 -0.04 0.06 -0.04 l1.84 0.12 q0.04 0 0.04 0.04 q0 0.06 -0.04 0.06 z M5.3 8.26 l-0.04 0 l-1.3 -0.98 q-0.06 0 0 -0.06 q0 -0.02 0.06 -0.02 l1.3 0.98 q0.02 0.02 0.02 0.06 z M4.06 8.92 l-0.04 -0.02 q-0.02 -0.04 0.02 -0.08 l1.22 -0.64 q0.04 -0.02 0.08 0.02 q0 0.06 -0.02 0.06 l-1.24 0.66 l-0.02 0 z M4.04 8.92 l0 -0.02 l-0.98 -0.24 q-0.04 0 -0.04 -0.06 q0 -0.04 0.06 -0.04 l0.98 0.26 q0.04 0 0.04 0.06 q0 0.04 -0.06 0.04 z M4.76 10.18 q-0.02 0 -0.06 -0.04 l-0.7 -1.26 q0 -0.04 0.02 -0.06 t0.08 0.02 l0.7 1.26 q0 0.06 -0.02 0.06 z M3.36 10.38 q-0.04 0 -0.04 -0.04 q0 -0.06 0.04 -0.06 l1.38 -0.2 q0.06 -0.02 0.06 0.04 q0 0.02 -0.04 0.06 l-1.38 0.2 l-0.02 0 z M3.36 10.38 l-0.02 0 q-0.04 -0.04 -0.02 -0.08 l0.68 -1.46 q0.04 -0.04 0.08 -0.02 q0.02 0 0.02 0.06 l-0.7 1.46 q0 0.04 -0.04 0.04 z M5.5 11.92 q-0.04 0 -0.06 -0.02 l-0.74 -1.76 q0 -0.06 0.04 -0.06 q0.02 -0.02 0.06 0.02 l0.74 1.76 q0.02 0.02 -0.02 0.06 l-0.02 0 z M3.7 11.92 l-0.02 0 q-0.04 -0.04 -0.02 -0.08 l1.04 -1.74 q0.04 -0.04 0.08 -0.02 q0.02 0.02 0.02 0.06 l-1.06 1.76 q0 0.02 -0.04 0.02 z M4.6 12.68 l-0.04 0 l-0.88 -0.76 q-0.02 -0.02 -0.02 -0.08 q0.04 -0.04 0.08 0 l0.9 0.76 q0.02 0.02 0 0.08 l-0.04 0 z M4.6 12.68 l-0.04 0 q-0.02 -0.06 0 -0.08 l0.9 -0.76 q0.04 -0.04 0.08 0 q0.02 0.04 -0.02 0.08 l-0.88 0.76 l-0.04 0 z M4.6 12.68 q-0.08 0 -0.04 -0.04 l0.14 -2.52 q0 -0.04 0.06 -0.04 q0.04 0 0.04 0.04 l-0.14 2.52 q-0.04 0.04 -0.06 0.04 z M2.16 12.84 q-0.02 0 -0.04 -0.02 q0 -0.06 0.02 -0.08 l1.54 -0.9 q0.06 -0.06 0.06 0 q0.02 0.06 0 0.08 l-1.54 0.92 l-0.04 0 z M3.62 14.16 l-0.02 0 l-1.3 -0.32 q-0.04 0 -0.04 -0.06 q0 -0.04 0.06 -0.04 l1.32 0.32 q0.04 0 0.02 0.06 q0 0.04 -0.04 0.04 z M3.62 14.16 q-0.04 0 -0.04 -0.06 l0.08 -2.22 q0 -0.06 0.04 -0.06 q0.06 0 0.06 0.06 l-0.08 2.22 q0 0.06 -0.06 0.06 z M2.32 13.84 l-0.04 0 q-0.04 -0.04 0 -0.08 l1.38 -1.92 q0.04 -0.04 0.08 0 q0.06 0 0 0.06 l-1.38 1.92 z M3.62 14.16 q-0.02 0 -0.02 -0.02 q-0.08 0 -0.02 -0.06 l0.98 -1.46 q0.02 -0.06 0.06 -0.02 q0.06 0.02 0.02 0.06 l-0.98 1.48 q-0.02 0.02 -0.04 0.02 z M5.5 11.92 q-0.04 0 -0.04 -0.02 l-0.02 -0.02 l0.02 -0.04 q0.04 -0.04 0.08 0 l0 0.04 l0 0.02 z M5.6 13.46 l-0.02 0 l-1 -0.78 q-0.06 -0.04 -0.02 -0.08 q0.02 -0.02 0.08 0 l1 0.78 q0.02 0.04 0 0.06 q0 0.02 -0.04 0.02 z M4.64 14.48 l-0.02 0 l-1.02 -0.32 q-0.04 -0.04 -0.02 -0.08 q0 -0.08 0.06 -0.02 l1.02 0.32 q0.08 0 0.02 0.06 q0 0.04 -0.04 0.04 z M4.64 14.48 q-0.06 0 -0.06 -0.06 l-0.02 -1.78 q0 -0.06 0.04 -0.06 q0.06 0 0.06 0.06 l0.02 1.78 q0 0.06 -0.04 0.06 z M4.64 14.48 q-0.02 0 -0.04 -0.02 q-0.04 -0.02 0 -0.06 l0.96 -1.02 q0.04 -0.04 0.08 0 q0.02 0.04 0 0.06 l-0.96 1.02 q-0.02 0.02 -0.04 0.02 z M6.14 14.8 l-1.52 -0.32 q-0.04 -0.04 -0.02 -0.06 q0 -0.04 0.04 -0.04 l1.52 0.32 q0.04 0 0.04 0.06 q0 0.04 -0.06 0.04 z M2.72 15.36 q-0.02 0 -0.04 -0.02 q-0.04 -0.02 0 -0.06 l0.9 -1.2 q0.04 -0.04 0.08 -0.02 q0.04 0.04 0 0.08 l-0.9 1.2 q-0.02 0 -0.02 0.01 t-0.02 0.01 z M3.54 15.74 l-0.02 0 l-0.82 -0.4 q-0.08 0 -0.02 -0.06 q0 -0.08 0.06 -0.02 l0.82 0.38 q0.04 0.04 0.02 0.08 q-0.02 0.02 -0.04 0.02 z M3.54 15.74 q-0.06 0 -0.06 -0.06 l0.1 -1.58 q0 -0.04 0.04 -0.04 q0.06 0 0.06 0.04 l-0.1 1.6 q0 0.04 -0.04 0.04 z M3.36 16.6 l0 -0.02 q-0.08 0 -0.04 -0.04 l0.16 -0.86 q0.04 -0.04 0.06 -0.04 q0.04 0 0.04 0.06 l-0.16 0.86 q-0.04 0.04 -0.06 0.04 z M4.32 16.08 l-0.02 0 l-0.78 -0.34 q-0.04 -0.02 -0.04 -0.08 q0.02 -0.02 0.08 -0.02 l0.78 0.34 q0.04 0.04 0.02 0.08 q0 0.02 -0.04 0.02 z M4.32 16.08 q-0.04 0 -0.04 -0.02 l-0.7 -1.94 q-0.06 -0.06 0.02 -0.06 q0.06 -0.02 0.06 0.02 l0.7 1.94 q0.06 0.06 -0.02 0.06 l-0.02 0 z M3.36 16.6 q-0.04 0 -0.04 -0.04 q-0.06 -0.06 0.02 -0.06 l0.96 -0.5 q0.06 -0.06 0.06 0.02 q0.04 0.04 -0.02 0.06 l-0.96 0.5 q0 0.02 -0.02 0.02 z M4.76 18.26 q-0.06 0 -0.06 -0.04 l-0.42 -2.18 q-0.02 -0.02 0.04 -0.06 q0.02 0 0.06 0.04 l0.42 2.18 q0 0.06 -0.04 0.06 z M5.3 16.62 l-0.04 0 l-0.96 -0.54 q-0.04 -0.04 -0.02 -0.06 q0.02 -0.06 0.06 -0.02 l0.98 0.54 q0.02 0 0.02 0.06 q-0.02 0.02 -0.04 0.02 z M4.76 18.26 l-0.02 0 q-0.04 -0.04 -0.04 -0.06 l0.54 -1.64 q0.04 -0.04 0.06 -0.04 q0.04 0.02 0.04 0.08 l-0.54 1.62 q0 0.04 -0.04 0.04 z M5.3 16.62 q-0.06 0 -0.06 -0.04 q0 -0.02 0.04 -0.06 l0.82 -0.14 q0.04 0 0.04 0.04 q0.02 0.06 -0.04 0.06 z M6.1 16.48 q-0.06 0 -0.06 -0.04 l0.06 -1.7 q0 -0.04 0.04 -0.04 q0.06 0 0.06 0.04 l-0.06 1.7 q0 0.04 -0.04 0.04 z M4.32 16.08 q-0.02 0 -0.04 -0.02 q-0.06 -0.06 0.02 -0.06 l1.82 -1.3 q0.06 -0.06 0.06 0.02 q0.02 0.04 0 0.06 l-1.82 1.3 l-0.04 0 z M5.3 16.62 l-0.02 0 q-0.04 -0.02 -0.04 -0.06 l0.86 -1.84 q0.04 -0.04 0.06 -0.02 q0.04 0 0.04 0.06 l-0.86 1.84 q-0.02 0.02 -0.04 0.02 z M6.1 16.48 q-0.04 0 -0.04 -0.02 q-0.06 -0.06 0.02 -0.06 l1.02 -0.58 q0.02 -0.02 0.06 0.02 q0.06 0.06 -0.02 0.06 l-1.02 0.58 l-0.02 0 z M6.14 19.38 q-0.04 0 -0.04 -0.06 l-0.06 -2.88 q0 -0.06 0.06 -0.06 q0.04 0 0.04 0.06 l0.06 2.88 q0 0.06 -0.06 0.06 z M4.76 18.26 l-0.04 0 q-0.04 -0.04 0 -0.08 l1.34 -1.78 q0.02 -0.02 0.06 0 q0.06 0.02 0.02 0.06 l-1.34 1.78 z M7.06 17.48 l-0.04 0 l-0.96 -1.02 q-0.04 -0.02 0 -0.06 t0.08 0 l0.94 1 q0.04 0.04 0 0.08 l-0.02 0 z M7.06 17.48 l-0.02 0 q-0.04 0 -0.04 -0.04 l0.06 -1.58 q0 -0.04 0.06 -0.04 q0.04 0 0.04 0.04 l-0.06 1.58 q0 0.04 -0.04 0.04 z M7.06 17.48 q-0.04 0 -0.04 -0.02 q-0.04 -0.02 0 -0.06 l1.24 -0.86 q0.06 -0.06 0.06 0 q0.04 0.04 0 0.08 l-1.24 0.86 l-0.02 0 z M6.14 19.38 l-0.02 0 q-0.02 -0.02 -0.02 -0.08 l0.9 -1.88 q0.04 -0.04 0.08 -0.02 q0.02 0 0.02 0.06 l-0.9 1.88 q-0.04 0.04 -0.06 0.04 z M6.14 19.38 l-0.04 -0.04 q0 -0.04 0.02 -0.06 l1.76 -0.82 q0.02 -0.02 0.06 0.02 q0.06 0.06 -0.02 0.06 l-1.76 0.84 l-0.02 0 z M7.9 18.54 q-0.04 0 -0.06 -0.04 q0 -0.02 0.04 -0.06 l1.14 -0.28 q0.02 0 0.06 0.04 q0 0.06 -0.04 0.06 z M9.02 18.26 q-0.02 0 -0.02 -0.01 t-0.02 -0.01 l-0.74 -1.64 q-0.06 -0.06 0.02 -0.06 q0.04 -0.04 0.08 0.02 l0.74 1.62 q0 0.06 -0.04 0.08 l-0.02 0 z M9.02 18.26 l-0.02 0 l-1.96 -0.78 q-0.04 0 -0.04 -0.06 q0.04 -0.04 0.06 -0.02 l1.98 0.76 q0.04 0.02 0.04 0.06 q-0.04 0.04 -0.06 0.04 z M9.02 18.26 l-0.02 0 q-0.02 -0.02 -0.02 -0.08 l0.86 -1.34 q0 -0.02 0.06 -0.02 q0.04 0.06 0.02 0.08 l-0.84 1.34 q-0.02 0.02 -0.06 0.02 z M7.7 19.84 l-0.04 0 q-0.04 -0.04 0 -0.08 l1.32 -1.58 q0.04 -0.04 0.08 0 q0.06 0 0 0.06 l-1.32 1.58 q-0.02 0.02 -0.04 0.02 z M9.16 19.98 q-0.02 0 -0.06 -0.04 l-0.12 -1.72 q0 -0.06 0.04 -0.06 q0.06 0 0.06 0.04 l0.12 1.72 q0.02 0.06 -0.04 0.06 z M11.18 17.9 l-0.02 -0.02 l-1.32 -0.98 q-0.06 0 0 -0.06 q0 -0.02 0.06 -0.02 l1.32 0.98 q0.02 0.02 0 0.08 q-0.02 0.02 -0.04 0.02 z M11.18 17.9 q-0.04 -0.04 -0.04 -0.06 l0.18 -1.28 q0 -0.04 0.04 -0.04 q0.06 0 0.06 0.06 l-0.18 1.26 q0 0.06 -0.06 0.06 z M12.36 17.92 l-1.18 -0.02 q-0.04 -0.04 -0.04 -0.06 q0 -0.06 0.06 -0.04 l1.16 0.02 q0.04 0 0.04 0.06 q0 0.04 -0.04 0.04 z M12.04 19.7 l-0.02 0 q-0.04 0 -0.04 -0.06 l0.32 -1.78 q0 -0.04 0.06 -0.04 q0.04 0 0.04 0.06 l-0.32 1.78 q0 0.04 -0.04 0.04 z M12.04 19.7 q-0.04 0 -0.04 -0.02 l-0.86 -1.82 q0 -0.06 0.02 -0.06 q0.04 -0.02 0.08 0.02 l0.84 1.82 q0.02 0.02 -0.02 0.06 l-0.02 0 z M12.36 17.92 q-0.04 0 -0.04 -0.02 l-1 -1.3 q-0.04 -0.04 0.02 -0.06 q0.02 -0.02 0.06 0 l1 1.3 q0.02 0.04 -0.02 0.08 l-0.02 0 z M12.36 17.92 q-0.06 0 -0.06 -0.04 l-0.08 -1.84 q-0.04 -0.06 0.04 -0.06 q0.02 0 0.06 0.06 l0.08 1.84 q0 0.04 -0.04 0.04 z M13.56 18.02 l-1.2 -0.1 q-0.06 0 -0.06 -0.06 q0 -0.04 0.06 -0.04 l1.2 0.1 q0.04 0 0.04 0.06 q0 0.04 -0.04 0.04 z M13.56 18.02 q-0.04 0 -0.04 -0.02 l-1.3 -1.94 q-0.06 -0.06 0.02 -0.06 q0.02 -0.02 0.06 0 l1.3 1.94 q0.02 0.04 -0.02 0.08 l-0.02 0 z M13.32 19.04 l-0.02 0 q-0.04 -0.04 -0.02 -0.06 l0.22 -1.02 q0.04 -0.04 0.06 -0.04 q0.1 0 0.04 0.06 l-0.24 1.02 q0 0.04 -0.04 0.04 z M12.26 16.08 q-0.04 0 -0.04 -0.04 q-0.04 -0.06 0.04 -0.06 l1.2 -0.06 q0.04 -0.04 0.04 0.04 q0 0.02 -0.04 0.06 z M13.46 16.02 q-0.04 0 -0.04 -0.04 l-0.36 -0.84 q0 -0.06 0.04 -0.06 q0.02 -0.02 0.06 0.02 l0.34 0.84 q0.06 0.06 -0.02 0.06 z M14.36 16.62 l-0.02 0 l-0.9 -0.62 q-0.06 -0.02 -0.02 -0.06 t0.06 -0.02 l0.92 0.62 q0.06 0 0 0.06 q0 0.02 -0.04 0.02 z M13.56 18.02 l-0.02 0 q-0.06 -0.04 -0.02 -0.08 l0.8 -1.38 q0.02 -0.04 0.08 -0.02 q0.02 0 0.02 0.06 l-0.82 1.4 q0 0.02 -0.04 0.02 z M14.54 18.1 l-0.98 -0.08 q-0.06 0 -0.06 -0.06 q0 -0.04 0.06 -0.04 l0.98 0.08 q0.04 0 0.04 0.06 q0 0.04 -0.04 0.04 z M14.54 18.1 q-0.06 0 -0.06 -0.04 l-0.16 -1.48 q0 -0.06 0.04 -0.06 q0.06 0 0.06 0.06 l0.16 1.46 q0 0.06 -0.04 0.06 z M14.36 16.62 q-0.04 0 -0.04 -0.04 l-0.28 -1.38 q0 -0.02 0.04 -0.06 q0.06 0 0.06 0.04 l0.28 1.38 q0 0.06 -0.04 0.06 l-0.02 0 z M14.1 15.24 l-1 -0.06 q-0.04 -0.04 -0.04 -0.06 q0 -0.06 0.06 -0.04 l0.98 0.06 q0.04 0 0.04 0.06 q0 0.04 -0.04 0.04 z M13.46 16.02 q-0.02 0 -0.02 -0.01 t-0.02 -0.01 q-0.02 -0.02 0 -0.08 l0.64 -0.76 q0.02 -0.02 0.06 0 q0.04 0.04 0.02 0.06 l-0.64 0.78 q-0.02 0 -0.02 0.01 t-0.02 0.01 z M15.44 15.74 l-0.02 0 l-1.34 -0.5 q-0.04 0 -0.04 -0.06 q0.04 -0.04 0.08 -0.04 l1.34 0.5 q0.04 0 0.04 0.06 q-0.04 0.04 -0.06 0.04 z M14.36 16.62 q-0.02 0 -0.04 -0.02 q0 -0.04 0.02 -0.06 l1.08 -0.9 q0.04 0 0.06 0.02 q0.02 0.04 0 0.06 l-1.08 0.9 l-0.04 0 z M15.6 16.72 l-1.24 -0.1 q-0.04 0 -0.04 -0.04 q0 -0.06 0.06 -0.06 l1.24 0.1 q0.04 0 0.04 0.04 q0 0.06 -0.06 0.06 z M15.6 16.72 q-0.04 0 -0.04 -0.04 l-0.16 -0.98 q0 -0.06 0.04 -0.06 q0.06 0 0.06 0.04 l0.16 0.98 q0 0.02 -0.04 0.06 l-0.02 0 z M14.1 15.24 l-0.04 0 q-0.02 -0.02 0 -0.08 l0.96 -1.58 q0.04 -0.04 0.08 -0.02 q0.02 0.02 0.02 0.06 l-0.98 1.6 q-0.02 0.02 -0.04 0.02 z M13.3 14.440000000000001 q-0.04 0 -0.04 -0.02 q-0.06 -0.06 0.02 -0.06 l1.76 -0.8 q0.04 -0.02 0.08 0.02 q0 0.06 -0.02 0.06 l-1.78 0.8 l-0.02 0 z M14.1 15.24 q-0.04 0 -0.04 -0.02 l-0.8 -0.78 q-0.04 -0.04 0 -0.08 t0.08 0 l0.8 0.8 q0.02 0.04 0 0.06 z M11 14.52 q-0.04 0 -0.04 -0.02 l-1.2 -1.32 q-0.02 -0.02 0.02 -0.06 q0.02 -0.02 0.06 0 l1.18 1.32 q0.02 0.04 0 0.06 z M9.8 13.2 q-0.04 0 -0.04 -0.02 q-0.02 -0.04 0.02 -0.08 l0.96 -0.46 q0.04 -0.04 0.06 0.02 q0.02 0.02 -0.02 0.06 l-0.96 0.48 l-0.02 0 z M10.76 12.719999999999999 l-0.04 0 l-1.04 -1.1 q-0.04 -0.02 0 -0.06 t0.08 0 l1.04 1.08 q0.04 0.04 0 0.08 l-0.04 0 z M11 14.52 q-0.06 0 -0.06 -0.04 l-0.24 -1.8 q0 -0.06 0.06 -0.06 q0.04 0 0.04 0.04 l0.24 1.8 q0 0.06 -0.04 0.06 z M11 14.52 q-0.04 0 -0.04 -0.02 q-0.04 -0.02 0 -0.06 l0.82 -0.88 q0.04 -0.04 0.08 0 t0 0.08 l-0.84 0.86 z M11.82 13.64 l-0.04 0 l-1.06 -0.92 q-0.04 -0.04 0 -0.08 q0.02 -0.02 0.06 0 l1.08 0.92 q0.04 0.04 0 0.08 l-0.04 0 z M10.76 12.719999999999999 q-0.04 0 -0.04 -0.02 q-0.06 -0.06 0.02 -0.06 l1.96 -0.96 q0.02 -0.02 0.06 0.02 q0.06 0.06 -0.02 0.06 l-1.96 0.96 l-0.02 0 z M13.04 13 q-0.04 0 -0.06 -0.02 l-0.32 -1.24 q0 -0.06 0.04 -0.06 q0.06 -0.02 0.06 0.02 l0.32 1.24 q0.02 0.06 -0.04 0.06 z M11.82 13.64 q-0.04 0 -0.04 -0.02 q-0.06 -0.06 0.02 -0.06 l1.22 -0.64 q0.02 -0.02 0.06 0.02 q0.06 0.06 -0.02 0.06 l-1.22 0.64 l-0.02 0 z M13.04 13 l-2.28 -0.28 q-0.06 0 -0.06 -0.06 q0.04 -0.04 0.06 -0.04 l2.28 0.28 q0.06 0.04 0.04 0.06 q0 0.04 -0.04 0.04 z M12.18 14.54 l-0.04 0 q-0.02 -0.02 -0.02 -0.06 l0.88 -1.54 q0 -0.08 0.06 -0.02 q0.08 0 0.02 0.06 l-0.86 1.54 q-0.02 0.02 -0.04 0.02 z M12.18 14.54 q-0.04 0 -0.06 -0.02 l-0.34 -0.9 q-0.06 -0.06 0.02 -0.06 q0.06 -0.06 0.06 0.02 l0.36 0.9 q0 0.06 -0.02 0.06 l-0.02 0 z M13.3 14.440000000000001 q-0.04 0 -0.04 -0.04 l-0.28 -1.44 q0 -0.02 0.04 -0.06 q0.06 0 0.06 0.04 l0.28 1.44 q0 0.06 -0.04 0.06 l-0.02 0 z M13.04 13 l-0.04 0 q-0.04 -0.04 0 -0.08 l1.16 -1.36 q0.04 -0.04 0.08 0 q0.02 0.04 0 0.06 l-1.16 1.38 l-0.04 0 z M15 12.82 q-0.02 -0.02 -0.04 -0.02 l-0.8 -1.18 q-0.04 -0.04 0.02 -0.08 q0.04 0 0.06 0.02 l0.8 1.18 q0.02 0.04 0 0.06 t-0.04 0.02 z M13.04 13 q-0.06 0 -0.06 -0.04 q0 -0.02 0.06 -0.06 l1.96 -0.18 q0.06 0 0.06 0.04 q0 0.06 -0.04 0.06 z M13.3 14.440000000000001 l-0.04 0 q-0.04 -0.04 0 -0.08 l1.72 -1.64 q0.02 -0.02 0.06 0 q0.04 0.04 0 0.08 l-1.7 1.64 l-0.04 0 z M15.06 13.66 q-0.04 0 -0.04 -0.06 l-0.06 -0.84 q0 -0.04 0.04 -0.04 q0.06 0 0.06 0.04 l0.06 0.84 q0 0.02 -0.04 0.06 l-0.02 0 z M15 12.82 q-0.02 -0.02 -0.04 -0.02 q0 -0.06 0.02 -0.08 l1.4 -1.16 q0.04 -0.04 0.08 0 t0 0.08 l-1.42 1.16 q-0.02 0.02 -0.04 0.02 z M16.1 13.48 l-0.02 -0.02 l-1.1 -0.66 q-0.02 0 -0.02 -0.06 q0.04 -0.04 0.08 -0.02 l1.08 0.66 q0.04 0.04 0.02 0.06 q0 0.04 -0.04 0.04 z M16.1 13.48 q-0.06 -0.04 -0.04 -0.06 l0.3 -1.84 q0.04 -0.04 0.06 -0.04 q0.06 0.04 0.04 0.06 l-0.32 1.82 q0 0.06 -0.04 0.06 z M16.6 14.32 q-0.04 0 -0.04 -0.04 l-0.5 -0.84 q-0.02 -0.02 0.02 -0.06 q0.02 -0.02 0.06 0.02 l0.5 0.84 q0.04 0.04 -0.02 0.06 z M16.6 14.32 l-0.02 -0.02 l-1.52 -0.66 q-0.04 0 -0.04 -0.06 q0.04 -0.04 0.06 -0.02 l1.54 0.66 q0.08 0 0.02 0.06 q0 0.04 -0.04 0.04 z M15.44 15.74 q-0.04 0 -0.04 -0.04 l-0.38 -2.1 q0 -0.04 0.04 -0.04 q0.06 -0.06 0.06 0.04 l0.38 2.08 q0 0.06 -0.04 0.06 l-0.02 0 z M15.44 15.74 q-0.04 0 -0.04 -0.04 q0 -0.06 0.04 -0.06 l0.86 -0.14 q0.06 -0.02 0.06 0.04 q0.02 0.02 -0.04 0.06 l-0.86 0.14 l-0.02 0 z M15.44 15.74 q-0.02 0 -0.02 -0.02 q-0.04 -0.04 -0.02 -0.06 l1.16 -1.44 q0.04 -0.04 0.08 0 t0 0.08 l-1.16 1.42 q0 0.02 -0.04 0.02 z M10.56 20 q-0.02 0 -0.02 -0.02 l-1.54 -1.74 q-0.04 -0.02 0 -0.06 q0.02 -0.02 0.06 0 l1.54 1.74 q0.02 0.04 0 0.06 q0 0.02 -0.04 0.02 z M11.94 19.7 l-0.02 0 l-2.92 -1.44 q-0.02 -0.02 -0.02 -0.08 q0.02 -0.02 0.08 -0.02 l2.9 1.44 q0.04 0.06 0.02 0.08 q0 0.02 -0.04 0.02 z M9.1 18.26 q-0.06 0 -0.06 -0.04 q0 -0.06 0.04 -0.06 l2.1 -0.36 q0.06 -0.06 0.06 0.04 q0 0.02 -0.04 0.06 z M2.2 11.58 l-0.04 0 q-0.04 -0.04 0 -0.08 l1.16 -1.2 q0.04 -0.04 0.08 0 q0.06 0 0 0.06 l-1.16 1.22 l-0.04 0 z M3.36 10.38 q-0.04 0 -0.04 -0.04 l-0.3 -1.72 q0 -0.06 0.04 -0.06 q0.06 0 0.06 0.04 l0.3 1.72 q0 0.06 -0.04 0.06 l-0.02 0 z M3.7 11.92 q-0.04 0 -0.04 -0.04 l-0.34 -1.54 q-0.06 -0.06 0.04 -0.06 q0.04 0 0.06 0.04 l0.34 1.54 q0 0.06 -0.04 0.06 l-0.02 0 z M2.18 12.719999999999999 l-0.02 0 q-0.04 -0.04 -0.02 -0.06 l1.18 -2.36 q0.04 -0.04 0.06 -0.02 q0.06 0.02 0.02 0.06 l-1.18 2.36 q0 0.02 -0.04 0.02 z"></path></g></svg>